<svg width="106" height="26" viewBox="0 0 106 26" fill="none" xmlns="http://www.w3.org/2000/svg">
<path d="M11.7775 0.189575C13.9372 0.189575 15.7904 0.634642 17.3372 1.52477C18.884 2.41491 20.0732 3.67715 20.905 5.31149C21.7368 6.94583 22.1527 8.90121 22.1527 11.1776V13.9356H5.97704C6.03541 16.2849 6.66288 18.0944 7.85945 19.3639C9.07061 20.6335 10.7633 21.2682 12.9376 21.2682C14.4844 21.2682 15.8706 21.1223 17.0964 20.8305C18.3368 20.524 19.6136 20.0789 20.9269 19.4953V23.676C19.7157 24.2451 18.4827 24.6609 17.2277 24.9236C15.9728 25.1863 14.4698 25.3176 12.7187 25.3176C10.3401 25.3176 8.24615 24.8579 6.4367 23.9386C4.64184 23.0047 3.23368 21.6184 2.21221 19.7798C1.20534 17.9412 0.701904 15.6575 0.701904 12.9287C0.701904 10.2145 1.16156 7.90893 2.08088 6.01192C3.0002 4.11492 4.29162 2.67027 5.95515 1.67799C7.61868 0.685715 9.55946 0.189575 11.7775 0.189575ZM11.7775 4.06384C10.1577 4.06384 8.84443 4.58917 7.83756 5.63982C6.84528 6.69047 6.26159 8.22996 6.08648 10.2583H17.1183C17.1037 9.04713 16.8994 7.97459 16.5054 7.04068C16.126 6.10677 15.5423 5.37715 14.7543 4.85183C13.9809 4.32651 12.9887 4.06384 11.7775 4.06384Z" fill="white"/>
<path d="M37.7154 25.3176C35.4244 25.3176 33.4398 24.8725 31.7617 23.9824C30.0836 23.0923 28.7922 21.7279 27.8874 19.8892C26.9827 18.0506 26.5304 15.7158 26.5304 12.8849C26.5304 9.93726 27.0265 7.52953 28.0188 5.66171C29.0111 3.79388 30.3827 2.41491 32.1338 1.52477C33.8995 0.634642 35.9205 0.189575 38.1969 0.189575C39.6416 0.189575 40.9476 0.335499 42.115 0.627346C43.297 0.9046 44.2965 1.24752 45.1137 1.65611L43.5815 5.77115C42.6914 5.40634 41.7794 5.0999 40.8454 4.85183C39.9115 4.60376 39.0141 4.47973 38.1532 4.47973C36.7377 4.47973 35.5557 4.79346 34.6072 5.42093C33.6733 6.0484 32.9729 6.98231 32.5059 8.22266C32.0536 9.46301 31.8274 11.0025 31.8274 12.8411C31.8274 14.6214 32.0609 16.1244 32.5278 17.3502C32.9948 18.5613 33.6879 19.4807 34.6072 20.1081C35.5265 20.721 36.6574 21.0274 37.9999 21.0274C39.3278 21.0274 40.5171 20.8669 41.5678 20.5459C42.6184 20.2249 43.6107 19.809 44.5446 19.2983V23.7635C43.6253 24.2888 42.6403 24.6755 41.5897 24.9236C40.539 25.1863 39.2476 25.3176 37.7154 25.3176Z" fill="white"/>
<path d="M71.6864 12.7098C71.6864 14.7236 71.4237 16.5111 70.8984 18.0725C70.3731 19.6339 69.607 20.9545 68.6001 22.0343C67.5932 23.0996 66.3821 23.9167 64.9666 24.4858C63.5511 25.0403 61.9533 25.3176 60.173 25.3176C58.5095 25.3176 56.9846 25.0403 55.5983 24.4858C54.212 23.9167 53.0082 23.0996 51.9867 22.0343C50.9798 20.9545 50.1991 19.6339 49.6446 18.0725C49.0901 16.5111 48.8129 14.7236 48.8129 12.7098C48.8129 10.0394 49.2725 7.7776 50.1918 5.92437C51.1258 4.05655 52.4537 2.63379 54.1756 1.65611C55.8975 0.678419 57.9477 0.189575 60.3262 0.189575C62.5589 0.189575 64.5288 0.678419 66.2361 1.65611C67.9434 2.63379 69.2786 4.05655 70.2417 5.92437C71.2048 7.79219 71.6864 10.054 71.6864 12.7098ZM54.1099 12.7098C54.1099 14.4755 54.3215 15.9858 54.7447 17.2407C55.1824 18.4957 55.8537 19.4588 56.7584 20.13C57.6631 20.7867 58.8305 21.115 60.2606 21.115C61.6906 21.115 62.858 20.7867 63.7627 20.13C64.6675 19.4588 65.3314 18.4957 65.7546 17.2407C66.1778 15.9858 66.3894 14.4755 66.3894 12.7098C66.3894 10.9441 66.1778 9.44842 65.7546 8.22266C65.3314 6.98231 64.6675 6.04111 63.7627 5.39904C62.858 4.74239 61.6833 4.41406 60.2387 4.41406C58.1082 4.41406 56.5541 5.12908 55.5764 6.55913C54.5987 7.98918 54.1099 10.0394 54.1099 12.7098Z" fill="white"/>
<path fill-rule="evenodd" clip-rule="evenodd" d="M102.933 20.5532C102.235 20.813 101.427 20.9452 100.511 20.9499C99.3027 20.9562 98.2629 20.7268 97.3917 20.2617C97.0889 20.1001 96.8096 19.9164 96.5537 19.7107C96.4511 20.0225 96.3168 20.3287 96.1509 20.6291C95.6733 21.4936 94.9261 22.2521 93.9092 22.9048C93.1382 23.3997 92.3889 23.7284 91.6615 23.891C90.934 24.0536 90.2393 24.0556 89.5774 23.8972C88.9211 23.7351 88.3093 23.4261 87.7422 22.9701C87.1806 22.5105 86.6802 21.906 86.2409 21.1566C85.8304 20.4563 85.5603 19.7462 85.4306 19.0264C85.3064 18.303 85.3222 17.5954 85.4781 16.9036C85.6431 16.2143 85.9561 15.5612 86.4171 14.944C86.5861 14.7178 86.776 14.4997 86.9866 14.2899C86.6957 14.2287 86.4178 14.1492 86.1528 14.0514C85.4301 13.7848 84.8119 13.4073 84.2982 12.9191C83.7908 12.4237 83.3923 11.8388 83.1025 11.1644C82.8194 10.49 82.6593 9.74734 82.6223 8.93647C82.5827 8.0687 82.6733 7.28919 82.8941 6.59793C83.1216 5.90664 83.4664 5.31435 83.9287 4.82106C84.3975 4.32773 84.9813 3.9512 85.68 3.69147C86.3787 3.43173 87.1862 3.2995 88.1024 3.29477C89.3107 3.28853 90.3504 3.51794 91.2217 3.98301C91.5245 4.14464 91.8038 4.3283 92.0597 4.534C92.1623 4.22215 92.2966 3.916 92.4625 3.61557C92.9401 2.75111 93.6873 1.99255 94.7042 1.33987C95.4752 0.844984 96.2245 0.516254 96.9519 0.353676C97.6794 0.1911 98.3741 0.189052 99.036 0.347531C99.6923 0.509596 100.304 0.818626 100.871 1.27462C101.433 1.7342 101.933 2.3387 102.372 3.08812C102.783 3.7884 103.053 4.49846 103.183 5.2183C103.307 5.94173 103.291 6.64933 103.135 7.34112C102.97 8.03035 102.657 8.68353 102.196 9.30068C102.027 9.52692 101.837 9.74495 101.627 9.95476C101.918 10.016 102.196 10.0955 102.461 10.1933C103.183 10.4599 103.801 10.8373 104.315 11.3256C104.823 11.821 105.221 12.4059 105.511 13.0803C105.794 13.7547 105.954 14.4973 105.991 15.3082C106.031 16.176 105.94 16.9555 105.719 17.6468C105.492 18.338 105.147 18.9303 104.685 19.4236C104.216 19.917 103.632 20.2935 102.933 20.5532Z" fill="#A2662F"/>
<path d="M91.3923 12.9966L93.1156 13.8517L95.3403 15.575L96.268 12.9182L97.2479 11.2627L95.5246 10.4077L93.2999 8.68433L92.3722 11.3411L91.3923 12.9966Z" fill="white"/>
</svg>
