<svg width="51" height="50" viewBox="0 0 51 50" fill="none" xmlns="http://www.w3.org/2000/svg">
<g clip-path="url(#clip0_1311_17)">
<rect x="0.5" width="50" height="50" rx="25" fill="white"/>
<path d="M32.6027 25.9543H18.3947C17.8642 25.9543 17.4355 25.5257 17.4355 24.9951C17.4355 24.4646 17.8642 24.0359 18.3947 24.0359H30.2857L24.4646 18.2149C24.0899 17.8402 24.0899 17.2317 24.4646 16.857C24.8393 16.4823 25.4478 16.4823 25.8225 16.857L33.2831 24.3177C33.5589 24.5935 33.6398 25.0041 33.49 25.3638C33.3401 25.7205 32.9894 25.9543 32.6027 25.9543Z" fill="#2C3D33"/>
<path d="M25.1332 33.4241C24.8875 33.4241 24.6417 33.3311 24.4558 33.1423C24.0811 32.7676 24.0811 32.1591 24.4558 31.7844L31.9255 24.3148C32.3002 23.9401 32.9087 23.9401 33.2833 24.3148C33.658 24.6894 33.658 25.2979 33.2833 25.6726L25.8137 33.1423C25.6248 33.3311 25.379 33.4241 25.1332 33.4241Z" fill="#2C3D33"/>
</g>
<defs>
<clipPath id="clip0_1311_17">
<rect width="50" height="50" fill="white" transform="translate(0.5)"/>
</clipPath>
</defs>
</svg>
