<svg width="106" height="26" viewBox="0 0 106 26" fill="none" xmlns="http://www.w3.org/2000/svg">
<path d="M11.7775 0.317627C13.9372 0.317627 15.7904 0.762694 17.3372 1.65283C18.884 2.54296 20.0732 3.8052 20.905 5.43954C21.7368 7.07388 22.1527 9.02926 22.1527 11.3057V14.0636H5.97704C6.03541 16.413 6.66288 18.2224 7.85945 19.492C9.07061 20.7615 10.7633 21.3963 12.9376 21.3963C14.4844 21.3963 15.8706 21.2503 17.0964 20.9585C18.3368 20.6521 19.6136 20.207 20.9269 19.6233V23.804C19.7157 24.3731 18.4827 24.789 17.2277 25.0517C15.9728 25.3143 14.4698 25.4456 12.7187 25.4456C10.3401 25.4456 8.24615 24.986 6.4367 24.0667C4.64184 23.1328 3.23368 21.7465 2.21221 19.9079C1.20534 18.0692 0.701904 15.7855 0.701904 13.0567C0.701904 10.3426 1.16156 8.03698 2.08088 6.13997C3.0002 4.24297 4.29162 2.79833 5.95515 1.80605C7.61868 0.813767 9.55946 0.317627 11.7775 0.317627ZM11.7775 4.1919C10.1577 4.1919 8.84443 4.71722 7.83756 5.76787C6.84528 6.81852 6.26159 8.35801 6.08648 10.3863H17.1183C17.1037 9.17518 16.8994 8.10264 16.5054 7.16873C16.126 6.23482 15.5423 5.50521 14.7543 4.97988C13.9809 4.45456 12.9887 4.1919 11.7775 4.1919Z" fill="#232323"/>
<path d="M37.7154 25.4456C35.4244 25.4456 33.4398 25.0006 31.7617 24.1104C30.0836 23.2203 28.7922 21.8559 27.8874 20.0173C26.9827 18.1787 26.5304 15.8439 26.5304 13.013C26.5304 10.0653 27.0265 7.65758 28.0188 5.78976C29.0111 3.92194 30.3827 2.54296 32.1338 1.65283C33.8995 0.762694 35.9205 0.317627 38.1969 0.317627C39.6416 0.317627 40.9476 0.46355 42.115 0.755397C43.297 1.03265 44.2965 1.37557 45.1137 1.78416L43.5815 5.8992C42.6914 5.53439 41.7794 5.22795 40.8454 4.97988C39.9115 4.73181 39.0141 4.60778 38.1532 4.60778C36.7377 4.60778 35.5557 4.92151 34.6072 5.54898C33.6733 6.17645 32.9729 7.11036 32.5059 8.35071C32.0536 9.59106 31.8274 11.1306 31.8274 12.9692C31.8274 14.7495 32.0609 16.2525 32.5278 17.4782C32.9948 18.6894 33.6879 19.6087 34.6072 20.2362C35.5265 20.8491 36.6574 21.1555 37.9999 21.1555C39.3278 21.1555 40.5171 20.995 41.5678 20.674C42.6184 20.3529 43.6107 19.937 44.5446 19.4263V23.8916C43.6253 24.4169 42.6403 24.8036 41.5897 25.0517C40.539 25.3143 39.2476 25.4456 37.7154 25.4456Z" fill="#232323"/>
<path d="M71.6864 12.8379C71.6864 14.8516 71.4237 16.6392 70.8984 18.2005C70.3731 19.7619 69.607 21.0825 68.6001 22.1624C67.5932 23.2276 66.3821 24.0448 64.9666 24.6139C63.5511 25.1684 61.9533 25.4456 60.173 25.4456C58.5095 25.4456 56.9846 25.1684 55.5983 24.6139C54.212 24.0448 53.0082 23.2276 51.9867 22.1624C50.9798 21.0825 50.1991 19.7619 49.6446 18.2005C49.0901 16.6392 48.8129 14.8516 48.8129 12.8379C48.8129 10.1675 49.2725 7.90565 50.1918 6.05242C51.1258 4.1846 52.4537 2.76185 54.1756 1.78416C55.8975 0.806471 57.9477 0.317627 60.3262 0.317627C62.5589 0.317627 64.5288 0.806471 66.2361 1.78416C67.9434 2.76185 69.2786 4.1846 70.2417 6.05242C71.2048 7.92024 71.6864 10.1821 71.6864 12.8379ZM54.1099 12.8379C54.1099 14.6035 54.3215 16.1138 54.7447 17.3688C55.1824 18.6237 55.8537 19.5868 56.7584 20.2581C57.6631 20.9147 58.8305 21.2431 60.2606 21.2431C61.6906 21.2431 62.858 20.9147 63.7627 20.2581C64.6675 19.5868 65.3314 18.6237 65.7546 17.3688C66.1778 16.1138 66.3894 14.6035 66.3894 12.8379C66.3894 11.0722 66.1778 9.57647 65.7546 8.35071C65.3314 7.11036 64.6675 6.16916 63.7627 5.52709C62.858 4.87044 61.6833 4.54211 60.2387 4.54211C58.1082 4.54211 56.5541 5.25714 55.5764 6.68719C54.5987 8.11724 54.1099 10.1675 54.1099 12.8379Z" fill="#232323"/>
<path fill-rule="evenodd" clip-rule="evenodd" d="M102.933 20.6813C102.235 20.941 101.427 21.0732 100.511 21.078C99.3027 21.0842 98.2629 20.8548 97.3917 20.3897C97.0889 20.2281 96.8096 20.0444 96.5537 19.8387C96.4511 20.1506 96.3168 20.4567 96.1509 20.7572C95.6733 21.6216 94.9261 22.3802 93.9092 23.0329C93.1382 23.5278 92.3889 23.8565 91.6615 24.0191C90.934 24.1816 90.2393 24.1837 89.5774 24.0252C88.9211 23.8631 88.3093 23.5541 87.7422 23.0981C87.1806 22.6385 86.6802 22.034 86.2409 21.2846C85.8304 20.5843 85.5603 19.8743 85.4306 19.1544C85.3064 18.431 85.3222 17.7234 85.4781 17.0316C85.6431 16.3424 85.9561 15.6892 86.4171 15.0721C86.5861 14.8458 86.776 14.6278 86.9866 14.418C86.6957 14.3567 86.4178 14.2772 86.1528 14.1795C85.4301 13.9128 84.8119 13.5354 84.2982 13.0471C83.7908 12.5517 83.3923 11.9669 83.1025 11.2925C82.8194 10.618 82.6593 9.87539 82.6223 9.06452C82.5827 8.19675 82.6733 7.41724 82.8941 6.72598C83.1216 6.03469 83.4664 5.4424 83.9287 4.94911C84.3975 4.45578 84.9813 4.07925 85.68 3.81952C86.3787 3.55978 87.1862 3.42755 88.1024 3.42282C89.3107 3.41658 90.3504 3.64599 91.2217 4.11106C91.5245 4.27269 91.8038 4.45635 92.0597 4.66205C92.1623 4.35019 92.2966 4.04405 92.4625 3.74362C92.9401 2.87916 93.6873 2.1206 94.7042 1.46792C95.4752 0.973034 96.2245 0.644304 96.9519 0.481726C97.6794 0.31915 98.3741 0.317102 99.036 0.47558C99.6923 0.637646 100.304 0.946676 100.871 1.40267C101.433 1.86225 101.933 2.46675 102.372 3.21617C102.783 3.91645 103.053 4.62651 103.183 5.34635C103.307 6.06978 103.291 6.77738 103.135 7.46917C102.97 8.1584 102.657 8.81158 102.196 9.42873C102.027 9.65497 101.837 9.873 101.627 10.0828C101.918 10.1441 102.196 10.2236 102.461 10.3213C103.183 10.588 103.801 10.9654 104.315 11.4536C104.823 11.949 105.221 12.5339 105.511 13.2083C105.794 13.8828 105.954 14.6254 105.991 15.4363C106.031 16.304 105.94 17.0836 105.719 17.7748C105.492 18.4661 105.147 19.0584 104.685 19.5517C104.216 20.045 103.632 20.4215 102.933 20.6813Z" fill="#A2662F"/>
<path d="M91.3923 13.1247L93.1156 13.9797L95.3403 15.7031L96.268 13.0462L97.2479 11.3907L95.5246 10.5357L93.2999 8.81238L92.3722 11.4692L91.3923 13.1247Z" fill="white"/>
</svg>
