<svg width="41" height="40" viewBox="0 0 41 40" fill="none" xmlns="http://www.w3.org/2000/svg">
<g clip-path="url(#clip0_1356_1061)">
<path d="M7.00458 9.92188H1.52667C0.865967 9.92188 0.330078 10.4578 0.330078 11.1185V28.8876C0.330078 29.5486 0.865967 30.0842 1.52667 30.0842H7.00458V9.92188Z" fill="white"/>
<path d="M16.8555 18.8838C17.3231 18.4166 18.0808 18.4166 18.548 18.8838C19.0153 19.351 19.0153 20.1088 18.548 20.5763L15.8466 23.2777C16.9016 23.7297 18.1724 23.5267 19.0323 22.6667C19.7791 21.92 20.7868 18.8304 21.4911 16.1201C18.7806 16.8242 15.691 17.8318 14.9442 18.5786C14.1544 19.3687 13.9188 20.5055 14.2362 21.5034L16.8555 18.8838Z" fill="white"/>
<path d="M9.39844 30.0842H25.8978V9.92188H9.39844V30.0842ZM13.2516 16.8863C14.8629 15.2753 20.6533 13.8153 22.8555 13.3289C23.7075 13.1406 24.4708 13.9014 24.2822 14.7556C23.7927 16.9714 22.3339 22.7499 20.7247 24.3594C18.915 26.1688 16.1257 26.3809 14.0853 25.0388L12.4014 26.723C11.2994 27.8253 9.58337 26.1563 10.7089 25.0305L12.4346 23.3047C11.2423 21.2796 11.5145 18.6237 13.2516 16.8863Z" fill="white"/>
<path d="M39.134 15.7451H37.3594V24.261H39.134C39.7947 24.261 40.3306 23.7252 40.3306 23.0641V16.9417C40.3306 16.2807 39.7947 15.7451 39.134 15.7451Z" fill="white"/>
<path d="M34.9655 11.1185C34.9655 10.4578 34.4296 9.92188 33.7686 9.92188H28.291V30.0842H33.7686C34.4296 30.0842 34.9655 29.5486 34.9655 28.8876C34.9655 25.4807 34.9655 15.4855 34.9655 11.1185Z" fill="white"/>
</g>
<defs>
<clipPath id="clip0_1356_1061">
<rect width="40" height="40" fill="white" transform="translate(0.330078)"/>
</clipPath>
</defs>
</svg>
