<svg width="40" height="40" viewBox="0 0 40 40" fill="none" xmlns="http://www.w3.org/2000/svg">
<path d="M3.27051 29.9642H12.9786L13.5265 23.7393H5.50783C5.17138 23.7393 4.8768 23.9652 4.78983 24.2904L3.27051 29.9642Z" fill="white"/>
<path d="M15.7657 23.7393L15.2178 29.9642H24.7448L24.1952 23.7393H15.7657Z" fill="white"/>
<path d="M34.4541 23.7393H26.4346L26.9834 29.9644H36.6917L35.1724 24.2904C35.0852 23.9652 34.7908 23.7393 34.4541 23.7393Z" fill="white"/>
<path d="M1.97437 38.4197H12.2329L12.7813 32.1943H2.67246L1.25614 37.4838C1.1298 37.956 1.48571 38.4197 1.97437 38.4197Z" fill="white"/>
<path d="M15.0212 32.1943L14.4717 38.4197H25.4898L24.9412 32.1943H15.0212Z" fill="white"/>
<path d="M37.2895 32.1943H27.1807L27.7286 38.4197H37.9871C38.4758 38.4197 38.8317 37.956 38.7051 37.4838L37.2895 32.1943Z" fill="white"/>
<path d="M28.9762 14.5076C29.6459 14.2663 29.8265 13.4062 29.3117 12.9166L27.6338 11.3179C26.6995 10.4275 26.4191 9.035 26.9359 7.8526L27.6974 6.11309C27.9785 5.46787 27.4921 4.75307 26.7922 4.77504L24.4205 4.84737C23.3573 4.87919 22.3317 4.34635 21.7488 3.45554L20.7806 1.97581C20.402 1.39789 19.5579 1.39949 19.1812 1.97581L18.2128 3.45554C17.63 4.34635 16.6039 4.87827 15.5408 4.84737L13.1693 4.77504C12.4635 4.75422 11.9849 5.47245 12.2641 6.11309L13.0254 7.8526C13.5426 9.035 13.262 10.4275 12.328 11.3179L10.6496 12.9166C10.136 13.4053 10.3143 14.2661 10.9856 14.5076L13.1819 15.2975C14.3451 15.7152 15.1434 16.7822 15.2158 18.0154L15.319 19.7671C15.3611 20.4757 16.1281 20.8886 16.7413 20.5434L18.4705 19.5707C19.3862 19.055 20.5487 19.0404 21.4908 19.5707L23.2198 20.5434C23.8346 20.8897 24.6002 20.4736 24.6423 19.7671L24.7455 18.0154C24.8181 16.7822 25.6162 15.7152 26.7791 15.2975L28.9762 14.5076ZM19.9809 16.9395C16.9633 16.9395 14.5088 14.4842 14.5088 11.4676C14.5088 8.44998 16.9633 5.99545 19.9809 5.99545C22.9985 5.99545 25.4525 8.44998 25.4525 11.4676C25.4528 14.4842 22.9985 16.9395 19.9809 16.9395Z" fill="white"/>
<path d="M19.981 8.12012C18.1355 8.12012 16.6338 9.62136 16.6338 11.4673C16.6338 13.3123 18.1355 14.814 19.981 14.814C21.826 14.814 23.3277 13.3123 23.3277 11.4673C23.3277 9.62136 21.826 8.12012 19.981 8.12012Z" fill="white"/>
</svg>
