<svg width="41" height="40" viewBox="0 0 41 40" fill="none" xmlns="http://www.w3.org/2000/svg">
<g clip-path="url(#clip0_1356_1044)">
<path d="M31.0838 13.8099C31.2304 14.4392 31.8594 14.8323 32.491 14.6853C33.1213 14.5384 33.5132 13.9083 33.3663 13.278C32.7656 10.6996 31.4076 8.38967 29.4391 6.59819C28.9606 6.16256 28.2195 6.19741 27.7837 6.67608C27.3481 7.15475 27.383 7.89592 27.8616 8.33155C29.477 9.80186 30.5913 11.6962 31.0838 13.8099Z" fill="white"/>
<path d="M8.82908 14.6853C9.45931 14.8321 10.0894 14.4402 10.2363 13.8099C10.7288 11.6962 11.843 9.80175 13.4585 8.33152C13.937 7.89589 13.9719 7.15472 13.5363 6.67605C13.1006 6.19737 12.3595 6.16261 11.8809 6.59816C9.91252 8.38972 8.55447 10.6996 7.95369 13.2781C7.80681 13.9084 8.19869 14.5384 8.82908 14.6853Z" fill="white"/>
<path d="M20.6601 18.5439C21.927 18.5439 22.954 17.5169 22.954 16.25C22.954 14.9831 21.927 13.9561 20.6601 13.9561C19.3932 13.9561 18.3662 14.9831 18.3662 16.25C18.3662 17.5169 19.3932 18.5439 20.6601 18.5439Z" fill="white"/>
<path d="M23.9693 13.0049C24.2133 11.8372 24.3321 10.5519 24.3321 9.29668C24.3321 4.0321 21.6962 0.594341 21.584 0.45059C21.1146 -0.150743 20.2048 -0.14965 19.7364 0.45059C19.6242 0.594341 16.9883 4.0321 16.9883 9.29668C16.9883 10.5519 17.1071 11.8372 17.3511 13.0049C19.171 11.1493 22.1464 11.1463 23.9693 13.0049Z" fill="white"/>
<path d="M19.5019 20.7416C17.0272 20.1031 15.4877 17.5395 16.1927 15.0078C15.0602 15.3804 13.8886 15.9198 12.8024 16.547C8.25367 19.1732 6.52826 23.1235 6.45701 23.2904C6.15568 23.9963 6.60443 24.7979 7.36405 24.9098C7.42358 24.9185 7.92319 24.9881 8.72711 24.9881C10.4005 24.9881 13.3918 24.6865 16.4742 22.9069C17.6083 22.2522 18.6434 21.509 19.5019 20.7416Z" fill="white"/>
<path d="M34.8632 23.2903C34.792 23.1234 33.0666 19.1731 28.5179 16.5469C27.4316 15.9198 26.26 15.3804 25.1275 15.0078C25.8326 17.5395 24.2931 20.1031 21.8184 20.7416C22.6768 21.509 23.712 22.2522 24.846 22.9069C27.9286 24.6866 30.9198 24.9881 32.5931 24.9881C33.3967 24.9881 33.8967 24.9185 33.9561 24.9098C34.7156 24.7979 35.1647 23.9966 34.8632 23.2903Z" fill="white"/>
<path d="M27.5353 37.6561H25.6906L23.8635 25.0426C22.6848 24.3813 21.5768 23.6077 20.6602 22.8379C19.6745 23.6658 18.5529 24.4278 17.4569 25.0427L15.6299 37.6561H13.7852C13.138 37.6561 12.6133 38.1807 12.6133 38.8279C12.6133 39.4751 13.138 39.9998 13.7852 39.9998H27.5353C28.1825 39.9998 28.7072 39.4751 28.7072 38.8279C28.7072 38.1807 28.1825 37.6561 27.5353 37.6561Z" fill="white"/>
</g>
<defs>
<clipPath id="clip0_1356_1044">
<rect width="40" height="40" fill="white" transform="translate(0.660156)"/>
</clipPath>
</defs>
</svg>
